<?xml version="1.0" encoding="UTF-8" standalone="no"?>
<!DOCTYPE svg PUBLIC "-//W3C//DTD SVG 20010904//EN"
              "http://www.w3.org/TR/2001/REC-SVG-20010904/DTD/svg10.dtd">

<svg xmlns="http://www.w3.org/2000/svg"
     width="121.781mm" height="121.781mm"
     viewBox="0 0 350 350">
  <path id="Selection"
        fill="none" stroke="black" stroke-width="1"
        d="M 172.00,80.66
           C 166.34,82.87 154.73,90.71 149.00,94.32
             149.00,94.32 113.00,116.81 113.00,116.81
             113.00,116.81 92.00,129.30 92.00,129.30
             89.52,130.13 86.60,130.00 84.00,130.00
             84.00,130.00 49.00,130.00 49.00,130.00
             46.70,130.00 42.59,129.62 41.02,131.60
             39.85,133.08 40.01,136.18 40.00,138.00
             40.00,138.00 40.00,160.00 40.00,160.00
             40.00,160.00 40.00,260.00 40.00,260.00
             40.02,267.73 39.87,268.94 48.00,269.00
             48.00,269.00 100.00,269.00 100.00,269.00
             100.00,269.00 300.00,269.00 300.00,269.00
             302.30,269.00 306.41,269.38 307.98,267.40
             309.15,265.92 308.99,262.82 309.00,261.00
             309.00,261.00 309.00,239.00 309.00,239.00
             309.00,239.00 309.00,139.00 309.00,139.00
             309.00,137.01 309.23,133.19 307.98,131.60
             306.63,129.90 303.95,130.04 302.00,130.00
             302.00,130.00 284.00,130.00 284.00,130.00
             284.00,130.00 263.00,130.00 263.00,130.00
             254.22,129.88 249.22,125.23 242.00,120.68
             242.00,120.68 208.00,99.58 208.00,99.58
             208.00,99.58 186.00,85.81 186.00,85.81
             180.90,82.65 178.22,79.72 172.00,80.66 Z
           M 275.00,205.00
           C 275.00,205.00 201.00,149.13 201.00,149.13
             201.00,149.13 182.00,134.63 182.00,134.63
             182.00,134.63 174.00,130.41 174.00,130.41
             174.00,130.41 165.00,135.87 165.00,135.87
             165.00,135.87 147.00,149.63 147.00,149.63
             147.00,149.63 99.00,186.13 99.00,186.13
             99.00,186.13 74.00,204.00 74.00,204.00
             74.00,204.00 90.58,158.00 90.58,158.00
             90.58,158.00 99.41,137.33 99.41,137.33
             99.41,137.33 114.00,127.58 114.00,127.58
             114.00,127.58 141.00,110.68 141.00,110.68
             141.00,110.68 163.00,96.95 163.00,96.95
             163.00,96.95 174.00,91.19 174.00,91.19
             174.00,91.19 184.00,95.95 184.00,95.95
             184.00,95.95 207.00,110.32 207.00,110.32
             207.00,110.32 235.00,127.81 235.00,127.81
             235.00,127.81 249.50,137.52 249.50,137.52
             249.50,137.52 258.05,158.00 258.05,158.00
             258.05,158.00 275.00,205.00 275.00,205.00 Z
           M 87.00,139.00
           C 87.00,139.00 65.58,198.00 65.58,198.00
             63.94,202.34 57.49,214.74 62.31,217.98
             64.15,219.21 67.82,219.00 70.00,219.00
             70.00,219.00 90.00,219.00 90.00,219.00
             90.00,219.00 90.00,260.00 90.00,260.00
             90.00,260.00 49.00,260.00 49.00,260.00
             49.00,260.00 49.00,139.00 49.00,139.00
             49.00,139.00 87.00,139.00 87.00,139.00 Z
           M 300.00,139.00
           C 300.00,139.00 300.00,260.00 300.00,260.00
             300.00,260.00 259.00,260.00 259.00,260.00
             259.00,260.00 259.00,219.00 259.00,219.00
             259.00,219.00 279.00,219.00 279.00,219.00
             281.16,219.00 284.87,219.21 286.68,217.98
             291.25,214.88 284.59,202.19 283.05,198.00
             283.05,198.00 261.00,139.00 261.00,139.00
             261.00,139.00 300.00,139.00 300.00,139.00 Z
           M 265.00,209.00
           C 259.74,211.09 254.42,208.77 251.60,211.60
             249.31,213.89 250.00,221.74 250.00,225.00
             250.00,225.00 250.00,260.00 250.00,260.00
             250.00,260.00 99.00,260.00 99.00,260.00
             99.00,260.00 99.00,220.00 99.00,220.00
             98.99,217.46 99.32,213.52 97.40,211.60
             95.11,209.31 87.26,210.00 84.00,210.00
             84.00,210.00 104.00,193.79 104.00,193.79
             104.00,193.79 151.00,157.88 151.00,157.88
             151.00,157.88 167.00,145.87 167.00,145.87
             167.00,145.87 175.00,142.02 175.00,142.02
             175.00,142.02 184.00,147.63 184.00,147.63
             184.00,147.63 201.00,160.58 201.00,160.58
             201.00,160.58 237.00,187.88 237.00,187.88
             237.00,187.88 265.00,209.00 265.00,209.00 Z
           M 74.00,204.00
           C 74.00,204.00 74.00,205.00 74.00,205.00
             74.00,205.00 73.00,204.00 73.00,204.00
             73.00,204.00 74.00,204.00 74.00,204.00 Z
           M 276.00,205.00
           C 276.00,205.00 276.00,206.00 276.00,206.00
             276.00,206.00 275.00,205.00 275.00,205.00
             275.00,205.00 276.00,205.00 276.00,205.00 Z" />
</svg>
