<?xml version="1.0" encoding="UTF-8" standalone="no"?>
<!DOCTYPE svg PUBLIC "-//W3C//DTD SVG 20010904//EN"
              "http://www.w3.org/TR/2001/REC-SVG-20010904/DTD/svg10.dtd">

<svg xmlns="http://www.w3.org/2000/svg"
     width="139.179mm" height="139.179mm"
     viewBox="0 0 400 400">
  <path id="Selection"
        fill="none" stroke="black" stroke-width="1"
        d="M 180.00,0.21
           C 148.36,5.01 127.24,10.26 99.00,26.43
             55.56,51.30 22.66,93.11 8.28,141.00
             4.09,154.95 0.02,173.46 0.00,188.00
             -0.05,217.99 0.08,235.84 10.08,265.00
             30.93,325.82 79.32,373.19 141.00,391.72
             153.81,395.57 172.70,399.84 186.00,400.00
             186.00,400.00 212.00,400.00 212.00,400.00
             240.58,399.96 276.36,387.68 301.00,373.57
             320.90,362.18 339.43,346.62 354.08,329.00
             416.88,253.48 415.51,140.89 350.71,67.00
             332.49,46.22 312.53,32.02 288.00,19.75
             266.91,9.21 235.66,0.04 212.00,0.21
             212.00,0.21 180.00,0.21 180.00,0.21 Z
           M 333.00,145.00
           C 333.00,145.00 333.00,282.00 333.00,282.00
             333.00,282.00 66.00,282.00 66.00,282.00
             66.00,282.00 66.00,145.00 66.00,145.00
             66.00,145.00 110.00,145.00 110.00,145.00
             122.00,144.98 127.18,139.27 137.00,133.05
             137.00,133.05 178.00,107.58 178.00,107.58
             181.51,105.39 195.08,96.44 198.00,95.80
             202.42,94.83 209.18,100.48 213.00,102.80
             213.00,102.80 249.00,125.19 249.00,125.19
             249.00,125.19 269.00,137.68 269.00,137.68
             271.85,139.48 278.07,143.66 281.00,144.49
             283.09,145.09 285.81,145.00 288.00,145.00
             288.00,145.00 333.00,145.00 333.00,145.00 Z
           M 95.00,223.00
           C 95.00,223.00 120.00,205.13 120.00,205.13
             120.00,205.13 171.00,166.12 171.00,166.12
             171.00,166.12 190.00,151.79 190.00,151.79
             190.00,151.79 199.00,146.23 199.00,146.23
             199.00,146.23 208.00,151.21 208.00,151.21
             208.00,151.21 227.00,165.65 227.00,165.65
             227.00,165.65 303.00,223.00 303.00,223.00
             302.04,216.91 299.21,210.80 297.05,205.00
             297.05,205.00 284.68,172.00 284.68,172.00
             282.97,167.37 278.40,153.37 275.58,150.38
             273.39,148.05 264.23,142.76 261.00,140.80
             261.00,140.80 233.00,123.31 233.00,123.31
             233.00,123.31 209.00,108.19 209.00,108.19
             205.81,106.22 201.92,102.99 198.00,103.75
             195.07,104.32 189.72,108.23 187.00,109.95
             187.00,109.95 165.00,123.66 165.00,123.66
             165.00,123.66 137.00,141.19 137.00,141.19
             133.82,143.14 124.80,148.25 122.70,150.61
             120.42,153.16 115.18,168.75 113.58,173.00
             113.58,173.00 95.00,223.00 95.00,223.00 Z
           M 73.00,152.00
           C 73.00,152.00 73.00,275.00 73.00,275.00
             73.00,275.00 116.00,275.00 116.00,275.00
             116.00,275.00 116.00,232.00 116.00,232.00
             116.00,232.00 85.00,232.00 85.00,232.00
             85.00,232.00 104.42,179.00 104.42,179.00
             104.42,179.00 114.00,152.00 114.00,152.00
             114.00,152.00 73.00,152.00 73.00,152.00 Z
           M 284.00,152.00
           C 284.00,152.00 302.81,202.00 302.81,202.00
             302.81,202.00 313.00,232.00 313.00,232.00
             313.00,232.00 283.00,232.00 283.00,232.00
             283.00,232.00 283.00,275.00 283.00,275.00
             283.00,275.00 326.00,275.00 326.00,275.00
             326.00,275.00 326.00,152.00 326.00,152.00
             326.00,152.00 284.00,152.00 284.00,152.00 Z
           M 105.00,224.00
           C 105.00,224.00 123.00,225.00 123.00,225.00
             123.00,225.00 123.00,275.00 123.00,275.00
             123.00,275.00 276.00,275.00 276.00,275.00
             276.00,275.00 276.00,225.00 276.00,225.00
             276.00,225.00 294.00,225.00 294.00,225.00
             294.00,225.00 268.00,204.63 268.00,204.63
             268.00,204.63 224.00,171.23 224.00,171.23
             224.00,171.23 207.00,158.13 207.00,158.13
             207.00,158.13 199.00,154.13 199.00,154.13
             199.00,154.13 190.00,159.42 190.00,159.42
             190.00,159.42 173.00,172.37 173.00,172.37
             173.00,172.37 128.00,206.65 128.00,206.65
             128.00,206.65 105.00,224.00 105.00,224.00 Z" />
</svg>
