<?xml version="1.0" encoding="UTF-8" standalone="no"?>
<!DOCTYPE svg PUBLIC "-//W3C//DTD SVG 20010904//EN"
              "http://www.w3.org/TR/2001/REC-SVG-20010904/DTD/svg10.dtd">

<svg xmlns="http://www.w3.org/2000/svg"
     width="0.333333in" height="0.333333in"
     viewBox="0 0 100 100">
  <path id="Selection"
        fill="none" stroke="black" stroke-width="1"
        d="M 8.00,7.00
           C 8.00,7.00 8.00,78.00 8.00,78.00
             8.00,78.00 21.00,78.00 21.00,78.00
             21.00,78.00 21.00,90.00 21.00,90.00
             21.00,90.00 90.00,90.00 90.00,90.00
             90.00,90.00 90.00,20.00 90.00,20.00
             90.00,20.00 79.00,20.00 79.00,20.00
             79.00,20.00 79.00,7.00 79.00,7.00
             79.00,7.00 8.00,7.00 8.00,7.00 Z
           M 74.00,12.00
           C 74.00,12.00 74.00,73.00 74.00,73.00
             74.00,73.00 13.00,73.00 13.00,73.00
             13.00,73.00 13.00,12.00 13.00,12.00
             13.00,12.00 74.00,12.00 74.00,12.00 Z" />
</svg>
