<?xml version="1.0" encoding="utf-8"?>
<!-- Generator: Adobe Illustrator 18.0.0, SVG Export Plug-In . SVG Version: 6.00 Build 0)  -->
<!DOCTYPE svg PUBLIC "-//W3C//DTD SVG 1.1//EN" "http://www.w3.org/Graphics/SVG/1.1/DTD/svg11.dtd">
<svg version="1.1" id="Layer_1" xmlns="http://www.w3.org/2000/svg" xmlns:xlink="http://www.w3.org/1999/xlink" x="0px" y="0px"
	 viewBox="0 0 64 64" enable-background="new 0 0 64 64" xml:space="preserve">
<g>
	<path d="M62.5,20.1l-15-4l0,0c-0.4-0.1-0.8-0.1-1.1,0l-1.9,0.6c0.3-1.2,0.6-2.4,0.6-3.6C45,5.9,39.2,0,32,0S19,5.9,19,13.2
		c0,1.2,0.2,2.4,0.5,3.6l-1.9-0.6l0,0c-0.4-0.1-0.8-0.1-1.1,0l-15,4C0.6,20.3,0,21.1,0,22v36c0,0.9,0.6,1.7,1.5,1.9l15,4
		c0.2,0,0.3,0.1,0.5,0.1c0.2,0,0.3,0,0.5-0.1l0,0L32,60.1l14.5,3.9c0.2,0,0.3,0.1,0.5,0.1c0.2,0,0.3,0,0.5-0.1l0,0l15-4
		c0.9-0.2,1.5-1,1.5-1.9V22C64,21.1,63.4,20.3,62.5,20.1z M32,4c5,0,9,4.1,9,9.2c0,5.2-6,12.4-9,15.8c-3-3.5-9-10.5-9-15.8
		C23,8.1,27,4,32,4z M15,59.4L4,56.5V23.5l11-2.9V59.4z M19,59.4V20.8l2.6,0.9c2.4,4.3,5.8,8.1,7.8,10.5c0.2,0.2,0.4,0.4,0.5,0.6
		v23.7L19,59.4z M45,59.4l-11-2.9V32.7c0.2-0.2,0.4-0.5,0.6-0.7c2-2.3,5.4-6.1,7.7-10.3l2.7-0.9V59.4z M60,56.5l-11,2.9V20.6l11,2.9
		V56.5z"/>
	<path d="M38,13c0-3.3-2.7-6-6-6s-6,2.7-6,6s2.7,6,6,6S38,16.3,38,13z M30,13c0-1.1,0.9-2,2-2s2,0.9,2,2s-0.9,2-2,2S30,14.1,30,13z"
		/>
</g>
</svg>
