<?xml version="1.0" encoding="UTF-8" standalone="no"?>
<!DOCTYPE svg PUBLIC "-//W3C//DTD SVG 20010904//EN"
              "http://www.w3.org/TR/2001/REC-SVG-20010904/DTD/svg10.dtd">

<svg xmlns="http://www.w3.org/2000/svg"
     width="0.333333in" height="0.333333in"
     viewBox="0 0 100 100">
  <path id="Selection #1"
        fill="none" stroke="black" stroke-width="1"
        d="M 42.00,5.22
           C 33.15,7.09 27.02,9.45 20.00,15.32
             -11.54,41.72 5.73,95.52 48.00,96.00
             55.71,96.08 63.01,95.12 70.00,91.63
             104.74,74.26 102.87,23.13 68.00,8.46
             62.64,6.21 56.79,5.07 51.00,5.22
             51.00,5.22 42.00,5.22 42.00,5.22 Z
           M 90.00,52.00
           C 90.00,52.00 9.00,52.00 9.00,52.00
             9.77,16.98 47.31,-2.52 75.00,19.52
             79.36,22.99 83.13,28.01 85.63,33.00
             88.55,38.85 89.86,45.50 90.00,52.00 Z" />
</svg>
