<svg xmlns="http://www.w3.org/2000/svg" baseProfile="full" version="1.1" width="255px" height="255px" style="fill: none; width: 255px; height: 255px;">
    
    <path d="" style="stroke-width: 10; stroke-linecap: round; stroke-linejoin: round; stroke: rgb(153, 153, 153); fill: none;"/>
    <path d="M60,120 A60,60 0 0,1 120,60 A60,60 0 0,1 180,120 A60,60 0 0,1 120,180 A60,60 0 0,1 60,120 M120,60 L120,60 L120,15 M180,120 L180,120 L225,120 M120,180 L120,180 L120,225 M60,120 L60,120 L15,120 M165,165 L165,165 L195,195 M165,75 L165,75 L195,45 M75,75 L75,75 L45,45 M75,165 L75,165 L45,195 " style="stroke-width: 10; stroke-linecap: round; stroke-linejoin: round; stroke: rgb(0, 0, 0); fill: none;"/>
</svg>